<?xml version="1.0" encoding="UTF-8"?>
<svg xmlns="http://www.w3.org/2000/svg" viewBox="0 0 64 64" width="256" height="256" role="img" aria-label="fish icon">
  <title>Fish Icon</title>
  <g fill="none" stroke="#0f172a" stroke-width="2" stroke-linecap="round" stroke-linejoin="round">
    <path d="M2 32c12-10 28-12 44-4 0 0 6-6 12-6-4 8-2 20 0 24-6 0-12-6-12-6C30 46 14 44 2 34z" fill="#38bdf8" stroke="none"/>
    <path d="M2 32c12-10 28-12 44-4 0 0 6-6 12-6"/>
    <path d="M26 22c2 3 2 7 0 10"/>
    <circle cx="20" cy="28" r="1.8" fill="#07203a" stroke="none"/>
    <path d="M8 10c6 4 8 12 6 18"/>
    <path d="M54 18c0 0 6 6 8 14-2 8-8 14-8 14"/>
  </g>
</svg>
